G04 #@! TF.GenerationSoftware,KiCad,Pcbnew,8.0.2*
G04 #@! TF.CreationDate,2024-05-09T00:18:21+08:00*
G04 #@! TF.ProjectId,1bit-cpu,31626974-2d63-4707-952e-6b696361645f,rev?*
G04 #@! TF.SameCoordinates,Original*
G04 #@! TF.FileFunction,Copper,L1,Top*
G04 #@! TF.FilePolarity,Positive*
%FSLAX46Y46*%
G04 Gerber Fmt 4.6, Leading zero omitted, Abs format (unit mm)*
G04 Created by KiCad (PCBNEW 8.0.2) date 2024-05-09 00:18:21*
%MOMM*%
%LPD*%
G01*
G04 APERTURE LIST*
G04 #@! TA.AperFunction,ComponentPad*
%ADD10R,1.600000X1.600000*%
G04 #@! TD*
G04 #@! TA.AperFunction,ComponentPad*
%ADD11O,1.600000X1.600000*%
G04 #@! TD*
G04 #@! TA.AperFunction,ComponentPad*
%ADD12R,1.800000X1.800000*%
G04 #@! TD*
G04 #@! TA.AperFunction,ComponentPad*
%ADD13C,1.800000*%
G04 #@! TD*
G04 #@! TA.AperFunction,ComponentPad*
%ADD14C,1.600000*%
G04 #@! TD*
G04 #@! TA.AperFunction,ComponentPad*
%ADD15C,2.000000*%
G04 #@! TD*
G04 #@! TA.AperFunction,ComponentPad*
%ADD16C,2.240000*%
G04 #@! TD*
G04 #@! TA.AperFunction,ComponentPad*
%ADD17O,2.100000X1.400000*%
G04 #@! TD*
G04 #@! TA.AperFunction,ComponentPad*
%ADD18C,2.010000*%
G04 #@! TD*
G04 #@! TA.AperFunction,ViaPad*
%ADD19C,0.800000*%
G04 #@! TD*
G04 #@! TA.AperFunction,Conductor*
%ADD20C,0.250000*%
G04 #@! TD*
G04 APERTURE END LIST*
D10*
G04 #@! TO.P,U1,1*
G04 #@! TO.N,Net-(D1-K)*
X142240000Y-104140000D03*
D11*
G04 #@! TO.P,U1,2*
G04 #@! TO.N,Net-(D3-K)*
X144780000Y-104140000D03*
G04 #@! TO.P,U1,3*
G04 #@! TO.N,Net-(R9-Pad2)*
X147320000Y-104140000D03*
G04 #@! TO.P,U1,4*
G04 #@! TO.N,Net-(U4-A)*
X149860000Y-104140000D03*
G04 #@! TO.P,U1,5*
G04 #@! TO.N,Net-(R10-Pad2)*
X152400000Y-104140000D03*
G04 #@! TO.P,U1,6*
G04 #@! TO.N,Net-(U4-2C1)*
X154940000Y-104140000D03*
G04 #@! TO.P,U1,7,GND*
G04 #@! TO.N,GND*
X157480000Y-104140000D03*
G04 #@! TO.P,U1,8*
G04 #@! TO.N,Net-(R4-Pad2)*
X157480000Y-96520000D03*
G04 #@! TO.P,U1,9*
G04 #@! TO.N,Net-(R3-Pad2)*
X154940000Y-96520000D03*
G04 #@! TO.P,U1,10*
G04 #@! TO.N,Net-(C2-Pad2)*
X152400000Y-96520000D03*
G04 #@! TO.P,U1,11*
G04 #@! TO.N,Net-(R4-Pad2)*
X149860000Y-96520000D03*
G04 #@! TO.P,U1,12*
G04 #@! TO.N,Net-(R5-Pad2)*
X147320000Y-96520000D03*
G04 #@! TO.P,U1,13*
G04 #@! TO.N,Net-(C2-Pad2)*
X144780000Y-96520000D03*
G04 #@! TO.P,U1,14,VCC*
G04 #@! TO.N,+5V*
X142240000Y-96520000D03*
G04 #@! TD*
D12*
G04 #@! TO.P,LED3,1,K*
G04 #@! TO.N,GND*
X116200000Y-113665000D03*
D13*
G04 #@! TO.P,LED3,2,A*
G04 #@! TO.N,Net-(LED3-A)*
X118740000Y-113665000D03*
G04 #@! TD*
D14*
G04 #@! TO.P,R4,1*
G04 #@! TO.N,Net-(C2-Pad1)*
X167010000Y-104150000D03*
D11*
G04 #@! TO.P,R4,2*
G04 #@! TO.N,Net-(R4-Pad2)*
X167010000Y-96530000D03*
G04 #@! TD*
D14*
G04 #@! TO.P,C7,1*
G04 #@! TO.N,GND*
X126445000Y-80010000D03*
G04 #@! TO.P,C7,2*
G04 #@! TO.N,+5V*
X131445000Y-80010000D03*
G04 #@! TD*
D10*
G04 #@! TO.P,D3,1,K*
G04 #@! TO.N,Net-(D3-K)*
X152400000Y-135255000D03*
D11*
G04 #@! TO.P,D3,2,A*
G04 #@! TO.N,Net-(D3-A)*
X152400000Y-127635000D03*
G04 #@! TD*
D12*
G04 #@! TO.P,LED4,1,K*
G04 #@! TO.N,Net-(LED4-K)*
X140330000Y-69850000D03*
D13*
G04 #@! TO.P,LED4,2,A*
G04 #@! TO.N,+5V*
X142870000Y-69850000D03*
G04 #@! TD*
D14*
G04 #@! TO.P,C5,1*
G04 #@! TO.N,GND*
X126365000Y-107315000D03*
G04 #@! TO.P,C5,2*
G04 #@! TO.N,+5V*
X131365000Y-107315000D03*
G04 #@! TD*
G04 #@! TO.P,R3,1*
G04 #@! TO.N,Net-(C2-Pad1)*
X172090000Y-104150000D03*
D11*
G04 #@! TO.P,R3,2*
G04 #@! TO.N,Net-(R3-Pad2)*
X172090000Y-96530000D03*
G04 #@! TD*
D10*
G04 #@! TO.P,D4,1,K*
G04 #@! TO.N,Net-(D3-K)*
X156845000Y-135255000D03*
D11*
G04 #@! TO.P,D4,2,A*
G04 #@! TO.N,Net-(D4-A)*
X156845000Y-127635000D03*
G04 #@! TD*
D12*
G04 #@! TO.P,LED1,1,K*
G04 #@! TO.N,GND*
X116205000Y-94615000D03*
D13*
G04 #@! TO.P,LED1,2,A*
G04 #@! TO.N,Net-(LED1-A)*
X118745000Y-94615000D03*
G04 #@! TD*
D14*
G04 #@! TO.P,R9,1*
G04 #@! TO.N,+5V*
X163195000Y-123825000D03*
D11*
G04 #@! TO.P,R9,2*
G04 #@! TO.N,Net-(R9-Pad2)*
X163195000Y-116205000D03*
G04 #@! TD*
D14*
G04 #@! TO.P,R8,1*
G04 #@! TO.N,Net-(LED3-A)*
X113665000Y-132080000D03*
D11*
G04 #@! TO.P,R8,2*
G04 #@! TO.N,Net-(R5-Pad2)*
X121285000Y-132080000D03*
G04 #@! TD*
D10*
G04 #@! TO.P,SW1,1*
G04 #@! TO.N,Net-(D1-A)*
X144140000Y-123782500D03*
D11*
G04 #@! TO.P,SW1,2*
G04 #@! TO.N,Net-(D2-A)*
X146680000Y-123782500D03*
G04 #@! TO.P,SW1,3*
G04 #@! TO.N,Net-(R10-Pad2)*
X146680000Y-116162500D03*
G04 #@! TO.P,SW1,4*
G04 #@! TO.N,Net-(R9-Pad2)*
X144140000Y-116162500D03*
G04 #@! TD*
D10*
G04 #@! TO.P,U4,1,1G*
G04 #@! TO.N,GND*
X125105000Y-84445000D03*
D11*
G04 #@! TO.P,U4,2,B*
X125105000Y-86985000D03*
G04 #@! TO.P,U4,3,1C3*
X125105000Y-89525000D03*
G04 #@! TO.P,U4,4,1C2*
X125105000Y-92065000D03*
G04 #@! TO.P,U4,5,1C1*
G04 #@! TO.N,Net-(U2A-Q)*
X125105000Y-94605000D03*
G04 #@! TO.P,U4,6,1C0*
G04 #@! TO.N,Net-(U4-1C0)*
X125105000Y-97145000D03*
G04 #@! TO.P,U4,7,Y1*
G04 #@! TO.N,Net-(U2A-D)*
X125105000Y-99685000D03*
G04 #@! TO.P,U4,8,GND*
G04 #@! TO.N,GND*
X125105000Y-102225000D03*
G04 #@! TO.P,U4,9,Y2*
G04 #@! TO.N,Net-(U2B-D)*
X132725000Y-102225000D03*
G04 #@! TO.P,U4,10,2C0*
G04 #@! TO.N,Net-(U2B-~{Q})*
X132725000Y-99685000D03*
G04 #@! TO.P,U4,11,2C1*
G04 #@! TO.N,Net-(U4-2C1)*
X132725000Y-97145000D03*
G04 #@! TO.P,U4,12,2C2*
G04 #@! TO.N,GND*
X132725000Y-94605000D03*
G04 #@! TO.P,U4,13,2C3*
X132725000Y-92065000D03*
G04 #@! TO.P,U4,14,A*
G04 #@! TO.N,Net-(U4-A)*
X132725000Y-89525000D03*
G04 #@! TO.P,U4,15,2G*
G04 #@! TO.N,GND*
X132725000Y-86985000D03*
G04 #@! TO.P,U4,16,VCC*
G04 #@! TO.N,+5V*
X132725000Y-84445000D03*
G04 #@! TD*
D10*
G04 #@! TO.P,U2,1,~{R}*
G04 #@! TO.N,Net-(U2A-~{R})*
X125095000Y-111760000D03*
D11*
G04 #@! TO.P,U2,2,D*
G04 #@! TO.N,Net-(U2A-D)*
X125095000Y-114300000D03*
G04 #@! TO.P,U2,3,C*
G04 #@! TO.N,Net-(U2A-C)*
X125095000Y-116840000D03*
G04 #@! TO.P,U2,4,~{S}*
G04 #@! TO.N,+5V*
X125095000Y-119380000D03*
G04 #@! TO.P,U2,5,Q*
G04 #@! TO.N,Net-(U2A-Q)*
X125095000Y-121920000D03*
G04 #@! TO.P,U2,6,~{Q}*
G04 #@! TO.N,unconnected-(U2A-~{Q}-Pad6)*
X125095000Y-124460000D03*
G04 #@! TO.P,U2,7,GND*
G04 #@! TO.N,GND*
X125095000Y-127000000D03*
G04 #@! TO.P,U2,8,~{Q}*
G04 #@! TO.N,Net-(U2B-~{Q})*
X132715000Y-127000000D03*
G04 #@! TO.P,U2,9,Q*
G04 #@! TO.N,Net-(D1-K)*
X132715000Y-124460000D03*
G04 #@! TO.P,U2,10,~{S}*
G04 #@! TO.N,+5V*
X132715000Y-121920000D03*
G04 #@! TO.P,U2,11,C*
G04 #@! TO.N,Net-(U2A-C)*
X132715000Y-119380000D03*
G04 #@! TO.P,U2,12,D*
G04 #@! TO.N,Net-(U2B-D)*
X132715000Y-116840000D03*
G04 #@! TO.P,U2,13,~{R}*
G04 #@! TO.N,Net-(U2A-~{R})*
X132715000Y-114300000D03*
G04 #@! TO.P,U2,14,VCC*
G04 #@! TO.N,+5V*
X132715000Y-111760000D03*
G04 #@! TD*
D10*
G04 #@! TO.P,SW2,1*
G04 #@! TO.N,Net-(D3-A)*
X154300000Y-123782500D03*
D11*
G04 #@! TO.P,SW2,2*
G04 #@! TO.N,Net-(D4-A)*
X156840000Y-123782500D03*
G04 #@! TO.P,SW2,3*
G04 #@! TO.N,Net-(R10-Pad2)*
X156840000Y-116162500D03*
G04 #@! TO.P,SW2,4*
G04 #@! TO.N,Net-(R9-Pad2)*
X154300000Y-116162500D03*
G04 #@! TD*
D10*
G04 #@! TO.P,D2,1,K*
G04 #@! TO.N,Net-(D1-K)*
X147955000Y-135255000D03*
D11*
G04 #@! TO.P,D2,2,A*
G04 #@! TO.N,Net-(D2-A)*
X147955000Y-127635000D03*
G04 #@! TD*
D14*
G04 #@! TO.P,R1,1*
G04 #@! TO.N,+5V*
X137795000Y-121920000D03*
D11*
G04 #@! TO.P,R1,2*
G04 #@! TO.N,Net-(U2A-~{R})*
X137795000Y-114300000D03*
G04 #@! TD*
D12*
G04 #@! TO.P,LED2,1,K*
G04 #@! TO.N,GND*
X116200000Y-104140000D03*
D13*
G04 #@! TO.P,LED2,2,A*
G04 #@! TO.N,Net-(LED2-A)*
X118740000Y-104140000D03*
G04 #@! TD*
D14*
G04 #@! TO.P,C4,1*
G04 #@! TO.N,GND*
X137795000Y-102870000D03*
G04 #@! TO.P,C4,2*
G04 #@! TO.N,+5V*
X137795000Y-97870000D03*
G04 #@! TD*
G04 #@! TO.P,R5,1*
G04 #@! TO.N,Net-(U2A-C)*
X135890000Y-109220000D03*
D11*
G04 #@! TO.P,R5,2*
G04 #@! TO.N,Net-(R5-Pad2)*
X143510000Y-109220000D03*
G04 #@! TD*
D14*
G04 #@! TO.P,R7,1*
G04 #@! TO.N,Net-(LED2-A)*
X113665000Y-127000000D03*
D11*
G04 #@! TO.P,R7,2*
G04 #@! TO.N,Net-(D1-K)*
X121285000Y-127000000D03*
G04 #@! TD*
D15*
G04 #@! TO.P,SW3,1,1*
G04 #@! TO.N,Net-(U2A-~{R})*
X125655000Y-133005000D03*
X132155000Y-133005000D03*
G04 #@! TO.P,SW3,2,2*
G04 #@! TO.N,GND*
X125655000Y-137505000D03*
X132155000Y-137505000D03*
G04 #@! TD*
D16*
G04 #@! TO.P,J1,A9,VBUS*
G04 #@! TO.N,Net-(F1-Pad1)*
X111940000Y-74295000D03*
G04 #@! TO.P,J1,A12,GND*
G04 #@! TO.N,GND*
X111940000Y-77851000D03*
D17*
G04 #@! TO.P,J1,S1,SHIELD*
G04 #@! TO.N,unconnected-(J1-SHIELD-PadS1)*
X108130000Y-71755000D03*
X108130000Y-80391000D03*
G04 #@! TD*
D10*
G04 #@! TO.P,U3,1*
G04 #@! TO.N,Net-(U2A-Q)*
X142240000Y-90170000D03*
D11*
G04 #@! TO.P,U3,2*
G04 #@! TO.N,Net-(U4-2C1)*
X144780000Y-90170000D03*
G04 #@! TO.P,U3,3*
G04 #@! TO.N,Net-(U3-Pad3)*
X147320000Y-90170000D03*
G04 #@! TO.P,U3,4*
G04 #@! TO.N,Net-(U2A-Q)*
X149860000Y-90170000D03*
G04 #@! TO.P,U3,5*
G04 #@! TO.N,Net-(U3-Pad3)*
X152400000Y-90170000D03*
G04 #@! TO.P,U3,6*
G04 #@! TO.N,Net-(U3-Pad12)*
X154940000Y-90170000D03*
G04 #@! TO.P,U3,7,GND*
G04 #@! TO.N,GND*
X157480000Y-90170000D03*
G04 #@! TO.P,U3,8*
G04 #@! TO.N,Net-(U3-Pad13)*
X157480000Y-82550000D03*
G04 #@! TO.P,U3,9*
G04 #@! TO.N,Net-(U3-Pad3)*
X154940000Y-82550000D03*
G04 #@! TO.P,U3,10*
G04 #@! TO.N,Net-(U4-2C1)*
X152400000Y-82550000D03*
G04 #@! TO.P,U3,11*
G04 #@! TO.N,Net-(U4-1C0)*
X149860000Y-82550000D03*
G04 #@! TO.P,U3,12*
G04 #@! TO.N,Net-(U3-Pad12)*
X147320000Y-82550000D03*
G04 #@! TO.P,U3,13*
G04 #@! TO.N,Net-(U3-Pad13)*
X144780000Y-82550000D03*
G04 #@! TO.P,U3,14,VCC*
G04 #@! TO.N,+5V*
X142240000Y-82550000D03*
G04 #@! TD*
D14*
G04 #@! TO.P,C2,1*
G04 #@! TO.N,Net-(C2-Pad1)*
X162565000Y-102840000D03*
G04 #@! TO.P,C2,2*
G04 #@! TO.N,Net-(C2-Pad2)*
X162565000Y-97840000D03*
G04 #@! TD*
G04 #@! TO.P,C1,1*
G04 #@! TO.N,GND*
X137160000Y-137755000D03*
G04 #@! TO.P,C1,2*
G04 #@! TO.N,Net-(U2A-~{R})*
X137160000Y-132755000D03*
G04 #@! TD*
D18*
G04 #@! TO.P,F1,1*
G04 #@! TO.N,Net-(F1-Pad1)*
X126355000Y-74330000D03*
G04 #@! TO.P,F1,2*
G04 #@! TO.N,+5V*
X131455000Y-75530000D03*
G04 #@! TD*
D14*
G04 #@! TO.P,C3,1*
G04 #@! TO.N,GND*
X126405000Y-69850000D03*
G04 #@! TO.P,C3,2*
G04 #@! TO.N,+5V*
X131405000Y-69850000D03*
G04 #@! TD*
G04 #@! TO.P,C6,1*
G04 #@! TO.N,GND*
X137795000Y-88860000D03*
G04 #@! TO.P,C6,2*
G04 #@! TO.N,+5V*
X137795000Y-83860000D03*
G04 #@! TD*
D10*
G04 #@! TO.P,D1,1,K*
G04 #@! TO.N,Net-(D1-K)*
X143510000Y-135255000D03*
D11*
G04 #@! TO.P,D1,2,A*
G04 #@! TO.N,Net-(D1-A)*
X143510000Y-127635000D03*
G04 #@! TD*
D14*
G04 #@! TO.P,R10,1*
G04 #@! TO.N,+5V*
X168275000Y-123825000D03*
D11*
G04 #@! TO.P,R10,2*
G04 #@! TO.N,Net-(R10-Pad2)*
X168275000Y-116205000D03*
G04 #@! TD*
D14*
G04 #@! TO.P,R2,1*
G04 #@! TO.N,Net-(LED4-K)*
X137790000Y-77470000D03*
D11*
G04 #@! TO.P,R2,2*
G04 #@! TO.N,GND*
X145410000Y-77470000D03*
G04 #@! TD*
D14*
G04 #@! TO.P,R6,1*
G04 #@! TO.N,Net-(LED1-A)*
X113665000Y-121920000D03*
D11*
G04 #@! TO.P,R6,2*
G04 #@! TO.N,Net-(U2A-Q)*
X121285000Y-121920000D03*
G04 #@! TD*
D19*
G04 #@! TO.N,Net-(R5-Pad2)*
X146050000Y-100965000D03*
G04 #@! TD*
D20*
G04 #@! TO.N,Net-(U2A-~{R})*
X132155000Y-133005000D02*
X136910000Y-133005000D01*
X132715000Y-114300000D02*
X137795000Y-114300000D01*
X136910000Y-133005000D02*
X137160000Y-132755000D01*
G04 #@! TO.N,GND*
X130810000Y-92690000D02*
X132725000Y-94605000D01*
X157480000Y-90170000D02*
X159385000Y-92075000D01*
X132725000Y-86985000D02*
X130810000Y-88900000D01*
X114099000Y-80010000D02*
X111940000Y-77851000D01*
X116205000Y-94615000D02*
X118755000Y-92065000D01*
X118755000Y-92065000D02*
X125105000Y-92065000D01*
X128270000Y-71715000D02*
X128270000Y-78185000D01*
X127635000Y-102235000D02*
X127635000Y-107315000D01*
X125095000Y-127000000D02*
X127635000Y-127000000D01*
X125105000Y-102225000D02*
X127625000Y-102225000D01*
X132155000Y-137505000D02*
X136910000Y-137505000D01*
X132725000Y-92065000D02*
X130820000Y-92065000D01*
X130810000Y-88900000D02*
X130810000Y-92075000D01*
X159385000Y-102235000D02*
X157480000Y-104140000D01*
X137795000Y-102870000D02*
X139700000Y-102870000D01*
X126405000Y-69850000D02*
X128270000Y-71715000D01*
X130810000Y-92075000D02*
X130810000Y-92690000D01*
X132725000Y-86985000D02*
X137795000Y-86985000D01*
X159385000Y-80645000D02*
X159385000Y-88265000D01*
X127625000Y-102225000D02*
X127635000Y-102235000D01*
X125105000Y-81350000D02*
X126445000Y-80010000D01*
X159385000Y-88265000D02*
X157480000Y-90170000D01*
X154295000Y-86985000D02*
X157480000Y-90170000D01*
X137795000Y-86985000D02*
X154295000Y-86985000D01*
X127635000Y-81200000D02*
X127635000Y-102235000D01*
X128270000Y-78185000D02*
X126445000Y-80010000D01*
X127635000Y-135525000D02*
X125655000Y-137505000D01*
X127635000Y-107315000D02*
X127635000Y-127000000D01*
X137795000Y-88860000D02*
X137795000Y-86985000D01*
X159385000Y-92075000D02*
X159385000Y-102235000D01*
X126445000Y-80010000D02*
X127635000Y-81200000D01*
X126445000Y-80010000D02*
X114099000Y-80010000D01*
X125105000Y-84445000D02*
X125105000Y-81350000D01*
X153035000Y-99695000D02*
X157480000Y-104140000D01*
X136910000Y-137505000D02*
X137160000Y-137755000D01*
X130820000Y-92065000D02*
X130810000Y-92075000D01*
X145410000Y-77470000D02*
X156210000Y-77470000D01*
X142875000Y-99695000D02*
X153035000Y-99695000D01*
X132155000Y-137505000D02*
X129615000Y-137505000D01*
X156210000Y-77470000D02*
X159385000Y-80645000D01*
X116205000Y-94615000D02*
X116205000Y-104135000D01*
X126365000Y-107315000D02*
X127635000Y-107315000D01*
X129615000Y-137505000D02*
X127635000Y-135525000D01*
X139700000Y-102870000D02*
X142875000Y-99695000D01*
X127635000Y-127000000D02*
X127635000Y-135525000D01*
X116205000Y-104135000D02*
X116200000Y-104140000D01*
X125105000Y-84445000D02*
X125105000Y-92065000D01*
G04 #@! TO.N,Net-(C2-Pad1)*
X167010000Y-104150000D02*
X163875000Y-104150000D01*
X172090000Y-104150000D02*
X167010000Y-104150000D01*
X163875000Y-104150000D02*
X162565000Y-102840000D01*
G04 #@! TO.N,Net-(C2-Pad2)*
X144780000Y-96520000D02*
X144780000Y-95250000D01*
X144780000Y-95250000D02*
X146050000Y-93980000D01*
X151130000Y-93980000D02*
X152400000Y-95250000D01*
X152400000Y-95250000D02*
X152400000Y-96520000D01*
X146050000Y-93980000D02*
X151130000Y-93980000D01*
G04 #@! TO.N,+5V*
X131365000Y-107315000D02*
X132715000Y-107315000D01*
X135255000Y-100410000D02*
X137795000Y-97870000D01*
X132725000Y-84445000D02*
X137210000Y-84445000D01*
X130175000Y-107315000D02*
X130175000Y-111760000D01*
X132725000Y-84445000D02*
X130185000Y-84445000D01*
X130185000Y-84445000D02*
X130175000Y-84455000D01*
X137210000Y-84445000D02*
X137795000Y-83860000D01*
X137795000Y-121920000D02*
X139065000Y-120650000D01*
X130175000Y-81280000D02*
X130175000Y-84455000D01*
X133945000Y-67310000D02*
X141605000Y-67310000D01*
X141605000Y-67310000D02*
X142870000Y-68575000D01*
X132715000Y-121920000D02*
X137795000Y-121920000D01*
X131405000Y-79970000D02*
X131445000Y-80010000D01*
X132715000Y-107315000D02*
X135255000Y-104775000D01*
X163195000Y-123825000D02*
X168275000Y-123825000D01*
X132715000Y-111760000D02*
X130175000Y-111760000D01*
X131365000Y-107315000D02*
X130175000Y-107315000D01*
X140930000Y-83860000D02*
X142240000Y-82550000D01*
X139065000Y-120650000D02*
X160020000Y-120650000D01*
X130175000Y-111760000D02*
X130175000Y-119380000D01*
X131405000Y-69850000D02*
X131405000Y-79970000D01*
X142870000Y-68575000D02*
X142870000Y-69850000D01*
X137795000Y-97870000D02*
X140890000Y-97870000D01*
X130175000Y-119380000D02*
X132715000Y-121920000D01*
X131445000Y-80010000D02*
X130175000Y-81280000D01*
X160020000Y-120650000D02*
X163195000Y-123825000D01*
X140890000Y-97870000D02*
X142240000Y-96520000D01*
X130175000Y-84455000D02*
X130175000Y-107315000D01*
X137795000Y-83860000D02*
X140930000Y-83860000D01*
X135255000Y-104775000D02*
X135255000Y-100410000D01*
X131405000Y-69850000D02*
X133945000Y-67310000D01*
G04 #@! TO.N,Net-(D1-K)*
X132715000Y-124460000D02*
X137160000Y-124460000D01*
X143510000Y-135255000D02*
X147955000Y-135255000D01*
X139700000Y-131445000D02*
X143510000Y-135255000D01*
X137160000Y-124460000D02*
X139700000Y-127000000D01*
X139700000Y-127000000D02*
X139700000Y-131445000D01*
G04 #@! TO.N,Net-(D1-A)*
X144140000Y-127005000D02*
X143510000Y-127635000D01*
X144140000Y-123782500D02*
X144140000Y-127005000D01*
G04 #@! TO.N,Net-(D2-A)*
X146680000Y-123782500D02*
X146680000Y-126360000D01*
X146680000Y-126360000D02*
X147955000Y-127635000D01*
G04 #@! TO.N,Net-(D3-K)*
X152400000Y-135255000D02*
X156845000Y-135255000D01*
G04 #@! TO.N,Net-(D3-A)*
X154300000Y-125735000D02*
X152400000Y-127635000D01*
X154300000Y-123782500D02*
X154300000Y-125735000D01*
G04 #@! TO.N,Net-(D4-A)*
X156840000Y-123782500D02*
X156840000Y-127630000D01*
X156840000Y-127630000D02*
X156845000Y-127635000D01*
G04 #@! TO.N,Net-(LED1-A)*
X121285000Y-104775000D02*
X113665000Y-112395000D01*
X118745000Y-94615000D02*
X121285000Y-97155000D01*
X121285000Y-97155000D02*
X121285000Y-104775000D01*
X113665000Y-112395000D02*
X113665000Y-121920000D01*
G04 #@! TO.N,Net-(LED2-A)*
X118740000Y-104140000D02*
X111760000Y-111120000D01*
X111760000Y-111120000D02*
X111760000Y-125095000D01*
X111760000Y-125095000D02*
X113665000Y-127000000D01*
G04 #@! TO.N,Net-(LED3-A)*
X117475000Y-132080000D02*
X113665000Y-132080000D01*
X118740000Y-113665000D02*
X118740000Y-130815000D01*
X118740000Y-130815000D02*
X117475000Y-132080000D01*
G04 #@! TO.N,Net-(LED4-K)*
X140330000Y-74930000D02*
X137790000Y-77470000D01*
X140330000Y-69850000D02*
X140330000Y-74930000D01*
G04 #@! TO.N,Net-(R4-Pad2)*
X157480000Y-96520000D02*
X155575000Y-98425000D01*
X151765000Y-98425000D02*
X149860000Y-96520000D01*
X155575000Y-98425000D02*
X151765000Y-98425000D01*
G04 #@! TO.N,Net-(R5-Pad2)*
X146050000Y-100965000D02*
X146050000Y-106680000D01*
X143510000Y-109220000D02*
X146050000Y-106680000D01*
G04 #@! TO.N,Net-(U2A-Q)*
X144145000Y-88265000D02*
X147955000Y-88265000D01*
X122555000Y-119380000D02*
X122555000Y-97155000D01*
X121285000Y-121920000D02*
X125095000Y-121920000D01*
X125095000Y-121920000D02*
X122555000Y-119380000D01*
X147955000Y-88265000D02*
X149860000Y-90170000D01*
X122555000Y-97155000D02*
X125105000Y-94605000D01*
X142240000Y-90170000D02*
X144145000Y-88265000D01*
G04 #@! TO.N,Net-(R9-Pad2)*
X154300000Y-116162500D02*
X154300000Y-118740000D01*
X144140000Y-116162500D02*
X144140000Y-112400000D01*
X154300000Y-118740000D02*
X154305000Y-118745000D01*
X144140000Y-112400000D02*
X147320000Y-109220000D01*
X146722500Y-118745000D02*
X144140000Y-116162500D01*
X163195000Y-116205000D02*
X160655000Y-118745000D01*
X160655000Y-118745000D02*
X154305000Y-118745000D01*
X147320000Y-109220000D02*
X147320000Y-104140000D01*
X154305000Y-118745000D02*
X146722500Y-118745000D01*
G04 #@! TO.N,Net-(R10-Pad2)*
X156840000Y-111755000D02*
X156840000Y-111760000D01*
X146680000Y-116162500D02*
X146680000Y-113035000D01*
X152400000Y-107315000D02*
X156840000Y-111755000D01*
X168275000Y-116205000D02*
X168275000Y-113665000D01*
X156840000Y-111760000D02*
X156840000Y-116162500D01*
X166370000Y-111760000D02*
X156840000Y-111760000D01*
X146680000Y-113035000D02*
X152400000Y-107315000D01*
X168275000Y-113665000D02*
X166370000Y-111760000D01*
X152400000Y-104140000D02*
X152400000Y-107315000D01*
G04 #@! TO.N,Net-(U4-2C1)*
X132725000Y-97145000D02*
X136525000Y-93345000D01*
X136525000Y-93345000D02*
X141605000Y-93345000D01*
X141605000Y-93345000D02*
X144780000Y-90170000D01*
G04 #@! TO.N,Net-(U2A-D)*
X125095000Y-114300000D02*
X123190000Y-112395000D01*
X123190000Y-112395000D02*
X123190000Y-101600000D01*
X123190000Y-101600000D02*
X125105000Y-99685000D01*
G04 #@! TO.N,Net-(U3-Pad3)*
X148590000Y-91440000D02*
X151130000Y-91440000D01*
X147320000Y-90170000D02*
X148590000Y-91440000D01*
X151130000Y-91440000D02*
X152400000Y-90170000D01*
G04 #@! TO.N,Net-(U3-Pad13)*
X146685000Y-80645000D02*
X155575000Y-80645000D01*
X144780000Y-82550000D02*
X146685000Y-80645000D01*
X155575000Y-80645000D02*
X157480000Y-82550000D01*
G04 #@! TO.N,Net-(F1-Pad1)*
X126320000Y-74295000D02*
X126355000Y-74330000D01*
X111940000Y-74295000D02*
X126320000Y-74295000D01*
G04 #@! TO.N,unconnected-(J1-SHIELD-PadS1)*
X108130000Y-71755000D02*
X108130000Y-80391000D01*
G04 #@! TD*
M02*
