G04 #@! TF.GenerationSoftware,KiCad,Pcbnew,8.0.2*
G04 #@! TF.CreationDate,2024-05-09T00:18:21+08:00*
G04 #@! TF.ProjectId,1bit-cpu,31626974-2d63-4707-952e-6b696361645f,rev?*
G04 #@! TF.SameCoordinates,Original*
G04 #@! TF.FileFunction,Soldermask,Bot*
G04 #@! TF.FilePolarity,Negative*
%FSLAX46Y46*%
G04 Gerber Fmt 4.6, Leading zero omitted, Abs format (unit mm)*
G04 Created by KiCad (PCBNEW 8.0.2) date 2024-05-09 00:18:21*
%MOMM*%
%LPD*%
G01*
G04 APERTURE LIST*
%ADD10R,1.600000X1.600000*%
%ADD11O,1.600000X1.600000*%
%ADD12R,1.800000X1.800000*%
%ADD13C,1.800000*%
%ADD14C,1.600000*%
%ADD15C,3.200000*%
%ADD16C,2.000000*%
%ADD17C,2.240000*%
%ADD18O,2.100000X1.400000*%
%ADD19C,2.010000*%
G04 APERTURE END LIST*
D10*
G04 #@! TO.C,U1*
X142240000Y-104140000D03*
D11*
X144780000Y-104140000D03*
X147320000Y-104140000D03*
X149860000Y-104140000D03*
X152400000Y-104140000D03*
X154940000Y-104140000D03*
X157480000Y-104140000D03*
X157480000Y-96520000D03*
X154940000Y-96520000D03*
X152400000Y-96520000D03*
X149860000Y-96520000D03*
X147320000Y-96520000D03*
X144780000Y-96520000D03*
X142240000Y-96520000D03*
G04 #@! TD*
D12*
G04 #@! TO.C,LED3*
X116200000Y-113665000D03*
D13*
X118740000Y-113665000D03*
G04 #@! TD*
D14*
G04 #@! TO.C,R4*
X167010000Y-104150000D03*
D11*
X167010000Y-96530000D03*
G04 #@! TD*
D14*
G04 #@! TO.C,C7*
X126445000Y-80010000D03*
X131445000Y-80010000D03*
G04 #@! TD*
D15*
G04 #@! TO.C,H2*
X171440000Y-62240000D03*
G04 #@! TD*
D10*
G04 #@! TO.C,D3*
X152400000Y-135255000D03*
D11*
X152400000Y-127635000D03*
G04 #@! TD*
D12*
G04 #@! TO.C,LED4*
X140330000Y-69850000D03*
D13*
X142870000Y-69850000D03*
G04 #@! TD*
D14*
G04 #@! TO.C,C5*
X126365000Y-107315000D03*
X131365000Y-107315000D03*
G04 #@! TD*
G04 #@! TO.C,R3*
X172090000Y-104150000D03*
D11*
X172090000Y-96530000D03*
G04 #@! TD*
D10*
G04 #@! TO.C,D4*
X156845000Y-135255000D03*
D11*
X156845000Y-127635000D03*
G04 #@! TD*
D12*
G04 #@! TO.C,LED1*
X116205000Y-94615000D03*
D13*
X118745000Y-94615000D03*
G04 #@! TD*
D14*
G04 #@! TO.C,R9*
X163195000Y-123825000D03*
D11*
X163195000Y-116205000D03*
G04 #@! TD*
D14*
G04 #@! TO.C,R8*
X113665000Y-132080000D03*
D11*
X121285000Y-132080000D03*
G04 #@! TD*
D10*
G04 #@! TO.C,SW1*
X144140000Y-123782500D03*
D11*
X146680000Y-123782500D03*
X146680000Y-116162500D03*
X144140000Y-116162500D03*
G04 #@! TD*
D15*
G04 #@! TO.C,H1*
X109440000Y-62240000D03*
G04 #@! TD*
D10*
G04 #@! TO.C,U4*
X125105000Y-84445000D03*
D11*
X125105000Y-86985000D03*
X125105000Y-89525000D03*
X125105000Y-92065000D03*
X125105000Y-94605000D03*
X125105000Y-97145000D03*
X125105000Y-99685000D03*
X125105000Y-102225000D03*
X132725000Y-102225000D03*
X132725000Y-99685000D03*
X132725000Y-97145000D03*
X132725000Y-94605000D03*
X132725000Y-92065000D03*
X132725000Y-89525000D03*
X132725000Y-86985000D03*
X132725000Y-84445000D03*
G04 #@! TD*
D10*
G04 #@! TO.C,U2*
X125095000Y-111760000D03*
D11*
X125095000Y-114300000D03*
X125095000Y-116840000D03*
X125095000Y-119380000D03*
X125095000Y-121920000D03*
X125095000Y-124460000D03*
X125095000Y-127000000D03*
X132715000Y-127000000D03*
X132715000Y-124460000D03*
X132715000Y-121920000D03*
X132715000Y-119380000D03*
X132715000Y-116840000D03*
X132715000Y-114300000D03*
X132715000Y-111760000D03*
G04 #@! TD*
D10*
G04 #@! TO.C,SW2*
X154300000Y-123782500D03*
D11*
X156840000Y-123782500D03*
X156840000Y-116162500D03*
X154300000Y-116162500D03*
G04 #@! TD*
D10*
G04 #@! TO.C,D2*
X147955000Y-135255000D03*
D11*
X147955000Y-127635000D03*
G04 #@! TD*
D14*
G04 #@! TO.C,R1*
X137795000Y-121920000D03*
D11*
X137795000Y-114300000D03*
G04 #@! TD*
D12*
G04 #@! TO.C,LED2*
X116200000Y-104140000D03*
D13*
X118740000Y-104140000D03*
G04 #@! TD*
D14*
G04 #@! TO.C,C4*
X137795000Y-102870000D03*
X137795000Y-97870000D03*
G04 #@! TD*
G04 #@! TO.C,R5*
X135890000Y-109220000D03*
D11*
X143510000Y-109220000D03*
G04 #@! TD*
D14*
G04 #@! TO.C,R7*
X113665000Y-127000000D03*
D11*
X121285000Y-127000000D03*
G04 #@! TD*
D16*
G04 #@! TO.C,SW3*
X125655000Y-133005000D03*
X132155000Y-133005000D03*
X125655000Y-137505000D03*
X132155000Y-137505000D03*
G04 #@! TD*
D17*
G04 #@! TO.C,J1*
X111940000Y-74295000D03*
X111940000Y-77851000D03*
D18*
X108130000Y-71755000D03*
X108130000Y-80391000D03*
G04 #@! TD*
D15*
G04 #@! TO.C,H4*
X109440000Y-139240000D03*
G04 #@! TD*
D10*
G04 #@! TO.C,U3*
X142240000Y-90170000D03*
D11*
X144780000Y-90170000D03*
X147320000Y-90170000D03*
X149860000Y-90170000D03*
X152400000Y-90170000D03*
X154940000Y-90170000D03*
X157480000Y-90170000D03*
X157480000Y-82550000D03*
X154940000Y-82550000D03*
X152400000Y-82550000D03*
X149860000Y-82550000D03*
X147320000Y-82550000D03*
X144780000Y-82550000D03*
X142240000Y-82550000D03*
G04 #@! TD*
D14*
G04 #@! TO.C,C2*
X162565000Y-102840000D03*
X162565000Y-97840000D03*
G04 #@! TD*
G04 #@! TO.C,C1*
X137160000Y-137755000D03*
X137160000Y-132755000D03*
G04 #@! TD*
D19*
G04 #@! TO.C,F1*
X126355000Y-74330000D03*
X131455000Y-75530000D03*
G04 #@! TD*
D14*
G04 #@! TO.C,C3*
X126405000Y-69850000D03*
X131405000Y-69850000D03*
G04 #@! TD*
G04 #@! TO.C,C6*
X137795000Y-88860000D03*
X137795000Y-83860000D03*
G04 #@! TD*
D10*
G04 #@! TO.C,D1*
X143510000Y-135255000D03*
D11*
X143510000Y-127635000D03*
G04 #@! TD*
D14*
G04 #@! TO.C,R10*
X168275000Y-123825000D03*
D11*
X168275000Y-116205000D03*
G04 #@! TD*
D14*
G04 #@! TO.C,R2*
X137790000Y-77470000D03*
D11*
X145410000Y-77470000D03*
G04 #@! TD*
D14*
G04 #@! TO.C,R6*
X113665000Y-121920000D03*
D11*
X121285000Y-121920000D03*
G04 #@! TD*
D15*
G04 #@! TO.C,H3*
X171440000Y-139240000D03*
G04 #@! TD*
M02*
