M48
; DRILL file {KiCad 8.0.2} date 2024-05-09T00:18:28+0800
; FORMAT={-:-/ absolute / metric / decimal}
; #@! TF.CreationDate,2024-05-09T00:18:28+08:00
; #@! TF.GenerationSoftware,Kicad,Pcbnew,8.0.2
; #@! TF.FileFunction,MixedPlating,1,2
FMAT,2
METRIC
; #@! TA.AperFunction,Plated,PTH,ViaDrill
T1C0.400
; #@! TA.AperFunction,Plated,PTH,ComponentDrill
T2C0.600
; #@! TA.AperFunction,Plated,PTH,ComponentDrill
T3C0.800
; #@! TA.AperFunction,Plated,PTH,ComponentDrill
T4C0.900
; #@! TA.AperFunction,Plated,PTH,ComponentDrill
T5C1.010
; #@! TA.AperFunction,Plated,PTH,ComponentDrill
T6C1.100
; #@! TA.AperFunction,Plated,PTH,ComponentDrill
T7C1.120
; #@! TA.AperFunction,NonPlated,NPTH,ComponentDrill
T8C3.200
%
G90
G05
T1
X146.05Y-100.965
T3
X113.665Y-121.92
X113.665Y-127.0
X113.665Y-132.08
X121.285Y-121.92
X121.285Y-127.0
X121.285Y-132.08
X125.095Y-111.76
X125.095Y-114.3
X125.095Y-116.84
X125.095Y-119.38
X125.095Y-121.92
X125.095Y-124.46
X125.095Y-127.0
X125.105Y-84.445
X125.105Y-86.985
X125.105Y-89.525
X125.105Y-92.065
X125.105Y-94.605
X125.105Y-97.145
X125.105Y-99.685
X125.105Y-102.225
X126.365Y-107.315
X126.405Y-69.85
X126.445Y-80.01
X131.365Y-107.315
X131.405Y-69.85
X131.445Y-80.01
X132.715Y-111.76
X132.715Y-114.3
X132.715Y-116.84
X132.715Y-119.38
X132.715Y-121.92
X132.715Y-124.46
X132.715Y-127.0
X132.725Y-84.445
X132.725Y-86.985
X132.725Y-89.525
X132.725Y-92.065
X132.725Y-94.605
X132.725Y-97.145
X132.725Y-99.685
X132.725Y-102.225
X135.89Y-109.22
X137.16Y-132.755
X137.16Y-137.755
X137.79Y-77.47
X137.795Y-83.86
X137.795Y-88.86
X137.795Y-97.87
X137.795Y-102.87
X137.795Y-114.3
X137.795Y-121.92
X142.24Y-82.55
X142.24Y-90.17
X142.24Y-96.52
X142.24Y-104.14
X143.51Y-109.22
X143.51Y-127.635
X143.51Y-135.255
X144.14Y-116.162
X144.14Y-123.782
X144.78Y-82.55
X144.78Y-90.17
X144.78Y-96.52
X144.78Y-104.14
X145.41Y-77.47
X146.68Y-116.162
X146.68Y-123.782
X147.32Y-82.55
X147.32Y-90.17
X147.32Y-96.52
X147.32Y-104.14
X147.955Y-127.635
X147.955Y-135.255
X149.86Y-82.55
X149.86Y-90.17
X149.86Y-96.52
X149.86Y-104.14
X152.4Y-82.55
X152.4Y-90.17
X152.4Y-96.52
X152.4Y-104.14
X152.4Y-127.635
X152.4Y-135.255
X154.3Y-116.162
X154.3Y-123.782
X154.94Y-82.55
X154.94Y-90.17
X154.94Y-96.52
X154.94Y-104.14
X156.84Y-116.162
X156.84Y-123.782
X156.845Y-127.635
X156.845Y-135.255
X157.48Y-82.55
X157.48Y-90.17
X157.48Y-96.52
X157.48Y-104.14
X162.565Y-97.84
X162.565Y-102.84
X163.195Y-116.205
X163.195Y-123.825
X167.01Y-96.53
X167.01Y-104.15
X168.275Y-116.205
X168.275Y-123.825
X172.09Y-96.53
X172.09Y-104.15
T4
X116.2Y-104.14
X116.2Y-113.665
X116.205Y-94.615
X118.74Y-104.14
X118.74Y-113.665
X118.745Y-94.615
X140.33Y-69.85
X142.87Y-69.85
T5
X126.355Y-74.33
X131.455Y-75.53
T6
X125.655Y-133.005
X125.655Y-137.505
X132.155Y-133.005
X132.155Y-137.505
T7
X111.94Y-74.295
X111.94Y-77.851
T8
X109.44Y-62.24
X109.44Y-139.24
X171.44Y-62.24
X171.44Y-139.24
T2
G00X108.48Y-71.755
M15
G01X107.78Y-71.755
M16
G05
G00X108.48Y-80.391
M15
G01X107.78Y-80.391
M16
G05
M30
